<svg xmlns="http://www.w3.org/2000/svg" viewBox="0 0 24 24" fill="currentColor" class="w-10 h-10 text-indigo-600">
  <path fill-rule="evenodd" d="M12 2.25c-5.385 0-9.75 4.365-9.75 9.75s4.365 9.75 9.75 9.75 9.75-4.365 9.75-9.75S17.385 2.25 12 2.25zm-3.75 9.75a.75.75 0 01.75-.75h7.5a.75.75 0 010 1.5h-7.5a.75.75 0 01-.75-.75zM12 7.5a.75.75 0 01.75.75v3a.75.75 0 01-1.5 0v-3A.75.75 0 0112 7.5z" clip-rule="evenodd" />
  <path d="M12 15a.75.75 0 00-.75.75v.01a.75.75 0 001.5 0v-.01A.75.75 0 0012 15z" />
  <path d="M16.5 12a4.5 4.5 0 11-9 0 4.5 4.5 0 019 0z" />
</svg>